<svg xmlns="http://www.w3.org/2000/svg" xmlns:xlink="http://www.w3.org/1999/xlink" width="140" height="38" viewBox="0 0 140 38">
    <defs>
        <path id="a" d="M17.059 24.538c-1.403.547-2.93.847-4.526.847C5.65 25.385.067 19.804.067 12.919.067 6.034 5.65.453 12.533.453c1.596 0 3.123.3 4.526.847v23.238z"/>
        <path id="c" d="M1.315 17.115a12.415 12.415 0 0 1-1.248-5.442c0-4.917 2.847-9.168 6.981-11.197v16.64H1.315z"/>
        <path id="e" d="M4.549 22.492A12.44 12.44 0 0 1 .067 12.92C.067 6.544 4.853 1.288 11.026.543v21.95H4.549z"/>
        <path id="g" d="M15.004 21.37a17.32 17.32 0 0 1-2.975 4.004C5.379 25.11.067 19.634.067 12.919c0-6.535 5.03-11.895 11.427-12.423a17.339 17.339 0 0 1 3.51 4.52V21.37z"/>
        <path id="i" d="M13.839.034a17.189 17.189 0 0 1 3.22 10.043c0 4.755-1.921 9.06-5.03 12.182C5.379 21.995.067 16.52.067 9.804c0-3.959 1.846-7.487 4.724-9.77h9.048z"/>
        <path id="k" d="M16.02.427a17.23 17.23 0 0 1 1.039 5.913c0 4.754-1.921 9.06-5.03 12.182C5.379 18.257.067 12.782.067 6.066c0-2.03.485-3.945 1.346-5.639H16.02z"/>
    </defs>
    <g fill="none" fill-rule="evenodd">
        <path fill="#FFE529" d="M35.747 19.322c0 9.536-7.73 17.267-17.267 17.267-9.536 0-17.267-7.73-17.267-17.267 0-9.536 7.731-17.267 17.267-17.267s17.267 7.731 17.267 17.267"/>
        <g transform="translate(18.689 6.13)">
            <mask id="b" fill="#fff">
                <use xlink:href="#a"/>
            </mask>
            <path fill="#FFF" d="M17.059 13.192c0 9.537-7.731 17.267-17.267 17.267-9.537 0-17.267-7.73-17.267-17.267 0-9.536 7.73-17.267 17.267-17.267 9.536 0 17.267 7.731 17.267 17.267" mask="url(#b)"/>
        </g>
        <g transform="translate(18.689 7.376)">
            <mask id="d" fill="#fff">
                <use xlink:href="#c"/>
            </mask>
            <path fill="#231F1F" d="M-19.022 17.115l-1.535-1.535 26.07-26.07 1.535 1.535z" mask="url(#d)"/>
        </g>
        <g transform="translate(18.689 6.13)">
            <mask id="f" fill="#fff">
                <use xlink:href="#e"/>
            </mask>
            <path fill="#231F1F" d="M-15.044 22.492l-1.535-1.535L9.49-5.113l1.535 1.535z" mask="url(#f)"/>
        </g>
        <g transform="translate(18.689 6.13)">
            <mask id="h" fill="#fff">
                <use xlink:href="#g"/>
            </mask>
            <path fill="#231F1F" d="M-11.066 26.623l-1.536-1.535 26.07-26.07L15.004.553z" mask="url(#h)"/>
        </g>
        <g transform="translate(18.689 9.245)">
            <mask id="j" fill="#fff">
                <use xlink:href="#i"/>
            </mask>
            <path fill="#231F1F" d="M-7.089 27.64l-1.535-1.536L17.446.034 18.98 1.57z" mask="url(#j)"/>
        </g>
        <g transform="translate(18.689 12.982)">
            <mask id="l" fill="#fff">
                <use xlink:href="#k"/>
            </mask>
            <path fill="#231F1F" d="M-3.111 28.033l-1.536-1.536L21.423.427l1.536 1.536z" mask="url(#l)"/>
        </g>
        <g fill="#231F1F">
            <path d="M18.48 3.141a16.075 16.075 0 0 0-11.442 4.74A16.075 16.075 0 0 0 2.3 19.322c0 4.322 1.683 8.385 4.74 11.442a16.075 16.075 0 0 0 11.441 4.739c4.322 0 8.386-1.683 11.442-4.74a16.074 16.074 0 0 0 4.74-11.44c0-4.323-1.684-8.386-4.74-11.442A16.075 16.075 0 0 0 18.48 3.14m0 34.534c-4.902 0-9.511-1.91-12.977-5.375A18.232 18.232 0 0 1 .127 19.322c0-4.902 1.91-9.51 5.376-12.977A18.234 18.234 0 0 1 18.48.969c4.902 0 9.511 1.91 12.978 5.376a18.232 18.232 0 0 1 5.375 12.977c0 4.902-1.909 9.511-5.375 12.978a18.234 18.234 0 0 1-12.978 5.375"/>
            <path d="M30.707 31.514l.019-.01c-6.654-.26-11.97-5.737-11.97-12.456 0-6.543 5.041-11.907 11.45-12.424l-.07-.04c-.867-.852-2.283-1.766-2.303-1.778a14.585 14.585 0 0 0-6.961 3.892 14.582 14.582 0 0 0-3.137 4.652 14.54 14.54 0 0 0-1.15 5.698c0 1.976.386 3.893 1.15 5.7a14.573 14.573 0 0 0 3.136 4.65 14.587 14.587 0 0 0 7.577 4.025c.71-.457 2.26-1.909 2.26-1.909M55.813 13.515a5.29 5.29 0 0 0-5.284 5.284 5.29 5.29 0 0 0 5.284 5.283 5.29 5.29 0 0 0 5.284-5.283 5.29 5.29 0 0 0-5.284-5.284m0 13.457c-4.507 0-8.173-3.666-8.173-8.173s3.666-8.174 8.173-8.174 8.174 3.667 8.174 8.174-3.667 8.173-8.174 8.173"/>
            <path d="M49.084 33.525a1.445 1.445 0 0 1-1.445-1.445V12.07a1.445 1.445 0 0 1 2.89 0v20.01c0 .798-.647 1.445-1.445 1.445M75.254 13.515a5.29 5.29 0 0 0-5.284 5.284 5.29 5.29 0 0 0 5.284 5.283 5.29 5.29 0 0 0 5.284-5.283 5.29 5.29 0 0 0-5.284-5.284m0 13.457c-4.507 0-8.174-3.666-8.174-8.173s3.667-8.174 8.174-8.174 8.174 3.667 8.174 8.174-3.667 8.173-8.174 8.173"/>
            <path d="M81.983 26.972a1.445 1.445 0 0 1-1.445-1.445V12.069a1.445 1.445 0 0 1 2.89 0v13.458c0 .798-.647 1.445-1.445 1.445M99.38 26.972a1.445 1.445 0 0 1-1.445-1.445V12.069a1.445 1.445 0 0 1 2.89 0v13.458c0 .798-.647 1.445-1.445 1.445M90.681 26.972a1.445 1.445 0 0 1-1.445-1.445V12.069a1.445 1.445 0 0 1 2.89 0v13.458c0 .798-.647 1.445-1.445 1.445"/>
            <path d="M99.38 20.886a1.445 1.445 0 0 1-1.445-1.415c-.004-.208-.014-2.084.93-4.065.92-1.932 2.91-4.28 7.169-4.502a1.445 1.445 0 0 1 .15 2.886c-2.31.12-3.85 1.055-4.71 2.86-.659 1.38-.65 2.748-.65 2.762a1.446 1.446 0 0 1-1.414 1.474h-.03M112.635 17.354h8.675c-.151-.89-.493-2.022-1.264-2.818-.665-.687-1.564-1.021-2.747-1.021-2.036 0-3.415.828-4.214 2.533-.21.448-.353.901-.45 1.306m10.236 2.89h-11.883a1.444 1.444 0 0 1-1.445-1.445c0-.082.01-2.027.926-3.978 1.269-2.706 3.694-4.196 6.83-4.196 1.988 0 3.615.645 4.838 1.916 2.304 2.397 2.184 6.156 2.178 6.314a1.445 1.445 0 0 1-1.444 1.388"/>
            <path d="M117.459 26.975c-.084 0-.148-.002-.19-.003-2.459-.006-4.398-.763-5.764-2.25-2.236-2.433-1.97-5.9-1.957-6.046a1.446 1.446 0 0 1 2.88.238c-.003.049-.153 2.39 1.217 3.866.802.864 2.031 1.302 3.654 1.302l.08.002c.017.001 2.563.094 3.898-1.537a1.445 1.445 0 1 1 2.237 1.83c-1.98 2.419-5.157 2.598-6.055 2.598M92.312 8.01H89.05a1.445 1.445 0 0 1 0-2.89h3.262a1.445 1.445 0 1 1 0 2.89M139.494 21.295c-.184-1.387-.857-2.437-2.001-3.123a7.081 7.081 0 0 0-1.69-.693c-.616-.169-1.301-.278-2.044-.326a5.761 5.761 0 0 1-1.04-.113 2.965 2.965 0 0 1-.871-.336c-.382-.198-.6-.536-.666-1.036-.072-.543.063-.99.415-1.368.236-.22.502-.4.788-.533a3.383 3.383 0 0 1 1.376-.302c1.125 0 2.184.61 2.51.817a1.463 1.463 0 1 0 1.712-2.352l-.044-.031c-.076-.054-1.88-1.306-4.169-1.306-.265 0-.53.016-.786.05-1.43.191-2.617.768-3.525 1.712-.999 1.01-1.41 2.246-1.22 3.675.169 1.263.813 2.274 1.917 3.004.993.649 2.158.985 3.465 1 .413.004.813.051 1.19.138.37.087.708.21.993.36.46.27.714.637.778 1.12.083.624-.075 1.125-.48 1.527-.487.457-1.113.735-1.86.824a5.24 5.24 0 0 1-.618.038c-1.691 0-2.994-.839-3.433-1.161a1.463 1.463 0 1 0-2.152 1.978l.035.036.034.032.064.062c.082.08 2.034 1.94 5.299 1.94a8.72 8.72 0 0 0 1.148-.076c1.468-.195 2.686-.765 3.619-1.692 1.037-1.036 1.46-2.336 1.256-3.865"/>
        </g>
    </g>
</svg>
